<svg fill="none" height="232" viewBox="0 0 185 232" width="185" xmlns="http://www.w3.org/2000/svg"><linearGradient id="a" gradientUnits="userSpaceOnUse" x1="92.7808" x2="92.7808" y1="137.904" y2="45.1445"><stop offset="0" stop-color="#808080" stop-opacity=".25"/><stop offset=".54" stop-color="#808080" stop-opacity=".12"/><stop offset="1" stop-color="#808080" stop-opacity=".1"/></linearGradient><clipPath id="b"><path d="m0 0h184.529v231.915h-184.529z"/></clipPath><g clip-path="url(#b)"><g fill="#0c97f0"><path d="m167.726 24.1749c2.702 2.1482 4.945 4.815 6.598 7.843 1.653 3.0281 2.682 6.3561 3.027 9.7879.051.5109.294.9836.68 1.3228.386.3391.886.5194 1.4.5046l3.122-.0914c.278-.0079.553-.0729.805-.191.253-.1181.478-.2867.663-.4954s.324-.4531.411-.718c.086-.2649.117-.5446.09-.8219-.801-8.4635-4.833-16.2942-11.259-21.8682-6.425-5.574-14.752-8.4638-23.253-8.0699-.279.0128-.552.0826-.802.205-.251.1225-.473.2949-.655.5067-.181.2118-.316.4584-.398.7247s-.109.5465-.078.8234l.347 3.1004c.056.5084.303.9769.69 1.3113.387.3345.887.5101 1.399.4917 6.23-.2573 12.344 1.7438 17.213 5.6343z"/><path d="m165.236 27.294c-4.782-3.8239-10.768-5.8271-16.891-5.6526-.281.0087-.557.0755-.811.1962-.253.1207-.479.2927-.663.505-.184.2124-.322.4605-.405.7288-.083.2682-.11.5508-.078.8298l.259 2.3116c.056.5022.298.9654.678 1.2989s.871.5133 1.377.5041c4.828-.085 9.516 1.6168 13.163 4.7779s5.994 7.558 6.59 12.3444c.06.5037.306.967.69 1.2988.384.3319.879.5084 1.386.495l2.327-.067c.28-.0072.556-.0724.81-.1915s.481-.2894.665-.5003c.185-.2109.324-.4578.409-.725.084-.2673.112-.5491.082-.8278-.379-3.3759-1.421-6.644-3.067-9.6171-1.645-2.9731-3.861-5.5929-6.521-7.7092z"/><path d="m155.522 39.4525c2.81 2.2362 4.676 5.445 5.229 8.9906.071.4957.322.9482.704 1.2719.383.3238.871.4964 1.372.4854l1.125-.0335c.289-.0088.572-.0786.831-.2048s.489-.3059.674-.5272c.184-.2213.32-.4793.397-.7568.078-.2776.096-.5684.052-.8533-.681-4.6318-3.005-8.8651-6.548-11.9294-3.543-3.0642-8.07-4.7557-12.757-4.7665-.284.0032-.564.066-.822.1844s-.488.2898-.676.5029c-.187.2131-.328.4633-.412.7342s-.111.5566-.077.8383l.125 1.1208c.059.4972.299.9555.674 1.2882.374.3327.858.5169 1.359.5178 3.185.0438 6.264 1.1478 8.75 3.137z"/><path d="m16.805 24.1749c-2.7012 2.1482-4.9445 4.815-6.5976 7.843-1.65304 3.0281-2.68244 6.3561-3.02745 9.7879-.05072.5109-.29351.9836-.6794 1.3228-.38588.3391-.88614.5194-1.39989.5046l-3.12198-.0914c-.27872-.0079-.55285-.0729-.80539-.191-.252546-.1181-.478123-.2867-.662768-.4954s-.324419-.4531-.4106598-.718c-.0862409-.2649-.117117-.5446-.09070678-.8219.80155358-8.4635 4.83318458-16.2942 11.25884458-21.8682 6.4257-5.574 14.7525-8.4638 23.2536-8.0699.2786.0128.5516.0826.802.205.2505.1225.4732.2949.6544.5067s.3169.4584.3989.7247.1084.5465.0777.8234l-.3476 3.0943c-.0559.5084-.3023.9769-.6896 1.3113-.3874.3345-.8872.5101-1.3988.4917-6.2311-.2556-12.3447 1.7477-17.2136 5.6404z"/><path d="m19.2954 27.294c4.7819-3.8239 10.7677-5.8271 16.8904-5.6526.281.0087.5571.0755.8109.1962s.4798.2927.6637.505c.184.2124.3218.4605.4049.7288.0831.2682.1096.5508.0779.8298l-.2592 2.3116c-.0561.5022-.2979.9654-.678 1.2989s-.8711.5133-1.3769.5041c-4.8276-.085-9.5161 1.6168-13.1629 4.7779s-5.9942 7.558-6.5903 12.3444c-.0599.5037-.306.967-.6901 1.2988-.3841.3319-.8785.5084-1.3861.495l-2.3263-.067c-.2804-.0072-.5563-.0724-.8103-.1915s-.4805-.2894-.6653-.5003c-.1847-.2109-.32374-.4578-.40823-.725-.08449-.2673-.11262-.5491-.08261-.8278.37924-3.3759 1.42144-6.644 3.06674-9.6171s3.8615-5.5929 6.5217-7.7092z"/><path d="m29.0098 39.4525c-2.8094 2.2362-4.6755 5.445-5.2287 8.9906-.0714.4957-.322.9482-.7045 1.2719-.3825.3238-.8705.4964-1.3717.4854l-1.125-.0335c-.2883-.0088-.5715-.0786-.8308-.2048-.2594-.1262-.489-.3059-.6736-.5272-.1847-.2213-.3203-.4793-.3979-.7568-.0775-.2776-.0953-.5684-.052-.8533.6816-4.6318 3.0055-8.8651 6.5486-11.9294 3.5431-3.0642 8.0699-4.7557 12.7564-4.7665.284.0032.5642.066.8223.1844s.4884.2898.6759.5029.328.4633.4123.7342c.0844.2709.1107.5566.0773.8383l-.125 1.1208c-.0595.4972-.2993.9555-.6739 1.2882-.3747.3327-.8583.5169-1.3596.5178-3.1849.0438-6.2641 1.1478-8.7501 3.137z"/></g><path d="m85.5371 229.53v-223.74729c0-1.53471.6103-3.00655 1.6967-4.09176 1.0863-1.085196 2.5597-1.69485625 4.096-1.69485625h3.433c1.5363 0 3.0097.60966025 4.0961 1.69485625 1.0863 1.08521 1.6971 2.55705 1.6971 4.09176v223.74729c-.007 3.179-15.0189 3.179-15.0189 0z" fill="#535461"/><path d="m135.162 45.1445h-84.7596c-7.4693 0-13.5245 6.0488-13.5245 13.5103v65.7362c0 7.461 6.0552 13.51 13.5245 13.51h84.7596c7.47 0 13.525-6.049 13.525-13.51v-65.7362c0-7.4615-6.055-13.5103-13.525-13.5103z" fill="url(#a)"/><path d="m133.961 46.5098h-82.1924c-7.4693 0-13.5245 6.0487-13.5245 13.5102v63.01c0 7.462 6.0552 13.51 13.5245 13.51h82.1924c7.47 0 13.525-6.048 13.525-13.51v-63.01c0-7.4615-6.055-13.5102-13.525-13.5102z" fill="#fff"/><path d="m97.8974 83.8611c.3838.0008.7517.1534 1.0231.4246.2714.2711.4242.6386.425 1.022v12.4352c-.0008.3834-.1536.7509-.425 1.022s-.6393.4238-1.0231.4246h-11.2623c-.3838-.0008-.7517-.1535-1.0232-.4246-.2714-.2711-.4242-.6386-.425-1.022v-12.4352c.0008-.3834.1536-.7509.425-1.022.2715-.2712.6394-.4238 1.0232-.4246h11.2653m0-.6091h-11.2653c-.5458 0-1.0693.2165-1.4552.6021-.3859.3855-.6028.9084-.6028 1.4536v12.4352c0 .5452.2169 1.0681.6028 1.4536.3859.3856.9094.6021 1.4552.6021h11.2653c.5458 0 1.0693-.2165 1.4552-.6021.3859-.3855.6027-.9084.6027-1.4536v-12.4352c0-.5452-.2168-1.0681-.6027-1.4536-.3859-.3856-.9094-.6021-1.4552-.6021z" fill="#e0e0e0"/><path d="m92.2656 87.8418v3.4902" stroke="#0c97f0" stroke-linecap="round" stroke-miterlimit="10" stroke-width="2"/><path d="m93.7292 89.3692c.6135.327 1.0995.8501 1.3801 1.4856.2807.6355.3398 1.3468.1679 2.0198-.1719.6731-.5649 1.2691-1.1161 1.6926-.5511.4235-1.2286.6501-1.9239.6435s-1.3683-.2461-1.9113-.6801c-.5429-.434-.9244-1.0373-1.0834-1.7136-.159-.6762-.0863-1.3862.2064-2.0162.2928-.6301.7887-1.1438 1.4083-1.459" stroke="#0c97f0" stroke-linecap="round" stroke-miterlimit="10" stroke-width="2"/></g></svg>