<svg fill="none" height="164" viewBox="0 0 255 164" width="255" xmlns="http://www.w3.org/2000/svg"
>
    <clipPath id="a">
        <path d="m0 0h255v163.824h-255z"/>
    </clipPath>
    <g clip-path="url(#a)">
        <path d="m223.455 151.258c8.201-8.2 8.201-21.496 0-29.696-8.2-8.2-21.495-8.2-29.696 0-8.2 8.2-8.2 21.496 0 29.696 8.201 8.201 21.496 8.201 29.696 0z"
              fill="#2f2e41"/>
        <path d="m208.49 138.342c3.87-.857 6.313-4.688 5.456-8.558s-4.688-6.313-8.558-5.456c-3.87.856-6.313 4.688-5.456 8.558.856 3.87 4.688 6.313 8.558 5.456z"
              fill="#fff"/>
        <path d="m204.549 131.817c1.29-.286 2.105-1.563 1.819-2.853-.285-1.29-1.563-2.104-2.853-1.819-1.29.286-2.104 1.563-1.818 2.853.285 1.29 1.562 2.104 2.852 1.819z"
              fill="#3f3d56"/>
        <path d="m207.778 122.215c-8.588-.016-14.617-1.55-14.602-9.33.014-7.78 6.988-14.0747 15.575-14.0588 8.588.0159 15.538 6.3358 15.524 14.1158-.015 7.781-7.91 9.289-16.497 9.273z"
              fill="#0c97f0"/>
        <path d="m241.519 139.921c-2.463 8.545-9.655 14.527-17.158 19.608-1.048.71-2.096 1.403-3.144 2.08-.007.003-.014.01-.021.013-.051.033-.101.065-.148.098-.217.139-.433.279-.648.417l.118.053s.116.061-.011.009c-.037-.015-.077-.029-.114-.045-4.359-1.758-8.795-3.646-12.135-6.939-3.465-3.419-5.49-8.783-3.614-13.275.247-.589.558-1.148.929-1.667.152-.218.316-.426.487-.631 1.035-1.263 2.387-2.228 3.919-2.795 1.531-.567 3.186-.716 4.794-.431 1.608.284 3.111.992 4.355 2.05s2.183 2.428 2.722 3.97c.551-5.132-3.68-9.431-7.753-12.603-4.074-3.17-8.704-6.623-9.491-11.727-.44-2.839.547-5.591 2.346-7.8.056-.067.111-.134.169-.199 2.189-2.573 5.269-4.226 8.623-4.627 6.248-.649 12.316 2.658 16.855 7.001 7.304 6.989 11.721 17.724 8.92 27.44z"
              fill="#e6e6e6"/>
        <path d="m229.777 128.743c1.199 1.866 2.119 3.896 2.732 6.027.519 1.905.749 3.876.685 5.849-.167 4.06-1.307 8.021-3.324 11.548-1.519 2.677-3.37 5.15-5.509 7.362-1.047.71-2.095 1.403-3.144 2.08-.007.003-.014.01-.021.013-.051.033-.101.065-.148.098-.216.139-.433.279-.647.417 0 0 .233.114.107.062-.038-.015-.078-.03-.115-.045.39-3.203.008-6.453-1.116-9.477s-2.957-5.735-5.344-7.906c-2.393-2.137-5.258-3.678-8.36-4.498.152-.218.316-.426.487-.631 1.198.336 2.364.777 3.484 1.319 4.005 1.923 7.285 5.084 9.353 9.016 1.856 3.571 2.655 7.597 2.303 11.605.179-.162.358-.328.532-.492 3.312-3.088 6.254-6.632 8.244-10.723 1.728-3.464 2.577-7.299 2.472-11.169-.162-4.219-1.843-8.127-4.277-11.529-2.668-3.629-5.819-6.877-9.367-9.653-3.575-2.864-7.487-5.279-11.649-7.192-.094-.044-.167-.122-.205-.218-.038-.097-.037-.204.002-.3.028-.086.089-.158.169-.2.041-.017.086-.026.131-.024s.089.014.128.035c.514.237 1.025.477 1.531.727 4.216 2.084 8.157 4.684 11.732 7.739 3.453 2.944 6.704 6.308 9.134 10.16z"
              fill="#fff"/>
        <path d="m35.9411 163.604c2.9359 0 5.316-.892 5.316-1.993s-2.3801-1.994-5.316-1.994c-2.936 0-5.3161.893-5.3161 1.994s2.3801 1.993 5.3161 1.993z"
              fill="#2f2e41"/>
        <path d="m48.6999 163.339c2.9359 0 5.316-.893 5.316-1.994s-2.3801-1.993-5.316-1.993c-2.936 0-5.3161.892-5.3161 1.993s2.3801 1.994 5.3161 1.994z"
              fill="#2f2e41"/>
        <path d="m65.6373 129.831c5.0236-2.896 8.359-6.522 7.4499-8.1-.9091-1.577-5.7186-.507-10.7422 2.389s-8.359 6.522-7.4498 8.099c.9091 1.577 5.7185.508 10.7421-2.388z"
              fill="#2f2e41"/>
        <path d="m60.9207 136.932c1.8576-11.448-5.9164-22.234-17.3637-24.091-11.4474-1.858-22.2332 5.916-24.0909 17.363-1.8576 11.448 5.9164 22.234 17.3637 24.091 11.4474 1.858 22.2332-5.916 24.0909-17.363z"
              fill="#2f2e41"/>
        <path d="m37.0043 150.049h-6.3793v11.429h6.3793z" fill="#2f2e41"/>
        <path d="m49.7631 150.049h-6.3793v11.429h6.3793z" fill="#2f2e41"/>
        <path d="m40.7255 135.43c3.9636 0 7.1767-3.214 7.1767-7.177 0-3.964-3.2131-7.177-7.1767-7.177s-7.1767 3.213-7.1767 7.177c0 3.963 3.2131 7.177 7.1767 7.177z"
              fill="#fff"/>
        <path d="m40.7252 130.644c1.3212 0 2.3923-1.071 2.3923-2.392 0-1.322-1.0711-2.393-2.3923-2.393s-2.3922 1.071-2.3922 2.393c0 1.321 1.071 2.392 2.3922 2.392z"
              fill="#3f3d56"/>
        <path d="m19.8251 114.041c-1.6955-7.594 3.7244-15.2665 12.1057-17.138s16.5503 2.767 18.2458 10.36c1.6955 7.594-3.8591 10.394-12.2405 12.266-8.3813 1.871-16.4155 2.105-18.111-5.488z"
              fill="#e6e6e6"/>
        <path d="m26.0286 128.325c.7801-1.645-2.8347-4.992-8.0739-7.477-5.2391-2.485-10.11864-3.166-10.8987-1.521-.78007 1.644 2.83471 4.992 8.0739 7.477 5.2391 2.485 10.1187 3.166 10.8987 1.521z"
              fill="#2f2e41"/>
        <path d="m29.8799 141.144c0 2.055 5.2917 6.113 11.1637 6.113 5.8719 0 11.3775-5.786 11.3775-7.841s-5.5056.399-11.3775.399c-5.872 0-11.1637-.726-11.1637 1.329z"
              fill="#fff"/>
        <path d="m113.414 163.604c2.936 0 5.316-.892 5.316-1.993s-2.38-1.994-5.316-1.994-5.316.893-5.316 1.994 2.38 1.993 5.316 1.993z"
              fill="#2f2e41"/>
        <path d="m100.655 163.339c2.936 0 5.316-.893 5.316-1.994s-2.38-1.993-5.316-1.993c-2.9361 0-5.3161.892-5.3161 1.993s2.38 1.994 5.3161 1.994z"
              fill="#2f2e41"/>
        <path d="m94.4593 132.22c.9091-1.577-2.4263-5.203-7.4499-8.099s-9.833-3.966-10.7422-2.389c-.9091 1.577 2.4263 5.204 7.4499 8.1s9.833 3.965 10.7422 2.388z"
              fill="#2f2e41"/>
        <path d="m109.161 154.567c11.597 0 20.998-9.401 20.998-20.998s-9.401-20.999-20.998-20.999c-11.5976 0-20.9989 9.402-20.9989 20.999s9.4013 20.998 20.9989 20.998z"
              fill="#2f2e41"/>
        <path d="m118.729 150.049h-6.379v11.429h6.379z" fill="#2f2e41"/>
        <path d="m105.971 150.049h-6.3792v11.429h6.3792z" fill="#2f2e41"/>
        <path d="m104.241 135.43c3.964 0 7.177-3.214 7.177-7.177 0-3.964-3.213-7.177-7.177-7.177-3.963 0-7.1765 3.213-7.1765 7.177 0 3.963 3.2135 7.177 7.1765 7.177z"
              fill="#fff"/>
        <path d="m102.511 128.962c.937-.937.943-2.45.013-3.381-.929-.931-2.443-.926-3.3805.01-.9374.937-.9434 2.451-.0135 3.381.93.931 2.444.926 3.381-.01z"
              fill="#3f3d56"/>
        <path d="m111.418 119.529c-8.381-1.872-13.9356-4.672-12.2401-12.266 1.6951-7.593 9.8641-12.2315 18.2461-10.36 8.381 1.8715 13.801 9.544 12.105 17.138-1.695 7.593-9.729 7.359-18.111 5.488z"
              fill="#0c97f0"/>
        <path d="m131.119 149.576c1.759-.468 1.979-5.39.49-10.994-1.488-5.604-4.121-9.768-5.88-9.301-1.76.467-1.979 5.389-.491 10.993 1.489 5.605 4.122 9.769 5.881 9.302z"
              fill="#2f2e41"/>
        <path d="m104.403 139.815c-3.855 0-7.4694-2.454-7.4694-.399s3.6144 7.841 7.4694 7.841 7.329-4.058 7.329-6.113-3.474-1.329-7.329-1.329z"
              fill="#fff"/>
        <path d="m77.2659 98.7531h-1.8648c-1.6705-.0019-3.272-.6663-4.4533-1.8475-1.1812-1.1813-1.8456-2.7828-1.8475-4.4533v-1.5656c0-3.8777.7347-7.1245 2.1838-9.6502 1.7562-2.938 3.805-5.6908 6.1151-8.2164 1.5337-1.5423 2.9253-3.2196 4.158-5.0116.8844-1.3922 1.341-3.0133 1.3132-4.6624 0-3.8899-2.5343-5.7809-7.7478-5.7809-2.8921.0327-5.7657.464-8.5399 1.2818-1.0699.3054-2.196.3583-3.2898.1546-1.0938-.2038-2.1254-.6586-3.0136-1.3287-.8881-.6701-1.6087-1.5371-2.1048-2.533-.4962-.9958-.7545-2.0932-.7545-3.2058v-3.1692c-.0061-1.3643.3836-2.7011 1.122-3.8484.7384-1.1472 1.7937-2.0556 3.0381-2.6151 4.8995-2.0909 10.1832-3.1303 15.5096-3.0511 5.58 0 10.6171.9373 14.9719 2.7854 4.3627 1.8525 7.8095 4.4646 10.2444 7.7641 2.428 3.276 3.718 7.2558 3.674 11.3331 0 4.3784-1.195 8.1919-3.552 11.3344-2.332 3.1107-5.6745 6.516-9.935 10.1221-2.2449 1.8669-4.372 3.8709-6.3694 6.0004-1.2901 1.3896-2.2019 3.0871-2.6481 4.93-.2486 1.466-1.0089 2.7963-2.1459 3.7545-1.1369.9582-2.5768 1.4822-4.0637 1.4788z"
              fill="#0c97f0"/>
        <path d="m76.2298 128.383h-.246c-3.0958-.002-6.0642-1.233-8.2526-3.423s-3.4177-5.159-3.4177-8.255 1.2293-6.065 3.4177-8.255c2.1884-2.189 5.1568-3.421 8.2526-3.423h.246c1.5342-.001 3.0535.301 4.4712.887 1.4177.587 2.706 1.447 3.7912 2.531 1.0852 1.085 1.946 2.372 2.5334 3.79.5873 1.417.8896 2.936.8896 4.47s-.3023 3.054-.8896 4.471c-.5874 1.417-1.4482 2.705-2.5334 3.789-1.0852 1.085-2.3735 1.945-3.7912 2.531-1.4177.587-2.937.888-4.4712.887z"
              fill="#0c97f0"/>
        <path d="m152.122 163.825h-151.634428c-.129312 0-.253321-.052-.344758-.143-.0914379-.091-.142814-.216-.142814-.345s.0513761-.253.142814-.345c.091437-.091.215446-.142.344758-.142h151.634428c.13 0 .254.051.345.142.092.092.143.216.143.345s-.051.254-.143.345c-.091.091-.215.143-.345.143z"
              fill="#ccc"/>
        <path d="m254.512 163.825h-80.937c-.129 0-.253-.052-.344-.143-.092-.091-.143-.216-.143-.345s.051-.253.143-.345c.091-.091.215-.142.344-.142h80.937c.13 0 .254.051.345.142.092.092.143.216.143.345s-.051.254-.143.345c-.091.091-.215.143-.345.143z"
              fill="#ccc"/>
        <path d="m204.278 149.583c5.798-.114 10.469-1.681 10.433-3.501-.035-1.82-4.764-3.203-10.561-3.09-5.798.113-10.469 1.681-10.433 3.501.035 1.82 4.764 3.203 10.561 3.09z"
              fill="#2f2e41"/>
        <g fill="#f2f2f2">
            <path d="m199.008 72.6483h-12.677c-.646-.0008-1.266-.2578-1.723-.7149-.457-.457-.714-1.0766-.714-1.723v-12.6768c0-.6464.257-1.266.714-1.723.457-.4571 1.077-.7142 1.723-.7149h12.677c.647.0007 1.266.2578 1.723.7149.457.457.714 1.0766.715 1.723v12.6768c-.001.6464-.258 1.266-.715 1.723-.457.4571-1.076.7141-1.723.7149zm-12.677-16.5775c-.387.0005-.759.1547-1.033.4289-.275.2743-.429.6461-.429 1.0339v12.6768c0 .3878.154.7596.429 1.0339.274.2742.646.4284 1.033.4288h12.677c.388-.0004.76-.1546 1.034-.4288.274-.2743.429-.6461.429-1.0339v-12.6768c0-.3878-.155-.7596-.429-1.0339-.274-.2742-.646-.4284-1.034-.4289z"/>
            <path d="m204.859 64.3592h-12.677c-.646-.0007-1.266-.2578-1.723-.7148-.457-.4571-.714-1.0767-.715-1.723v-12.6769c.001-.6463.258-1.266.715-1.723s1.077-.7141 1.723-.7149h12.677c.646.0008 1.266.2579 1.723.7149s.714 1.0767.715 1.723v12.6769c-.001.6463-.258 1.2659-.715 1.723-.457.457-1.077.7141-1.723.7148zm-12.677-16.5774c-.388.0004-.76.1547-1.034.4289s-.428.646-.429 1.0338v12.6769c.001.3878.155.7596.429 1.0338s.646.4285 1.034.4289h12.677c.388-.0004.759-.1547 1.034-.4289.274-.2742.428-.646.429-1.0338v-12.6769c-.001-.3878-.155-.7596-.429-1.0338-.275-.2742-.646-.4285-1.034-.4289z"/>
            <path d="m104.907 23.8905h-12.6771c-.6464-.0008-1.266-.2579-1.7231-.7149-.457-.457-.7141-1.0767-.7148-1.723v-12.67685c.0007-.64633.2578-1.26598.7148-1.723.4571-.45703 1.0767-.71412 1.7231-.71486h12.6771c.646.00074 1.266.25783 1.723.71486.457.45702.714 1.07667.715 1.723v12.67685c-.001.6463-.258 1.266-.715 1.723s-1.077.7141-1.723.7149zm-12.6771-16.57747c-.3879.00043-.7597.15467-1.0339.42889s-.4284.64602-.4289 1.03383v12.67685c.0005.3878.1547.7596.4289 1.0338.2742.2743.646.4285 1.0339.4289h12.6771c.388-.0004.759-.1546 1.034-.4289.274-.2742.428-.646.428-1.0338v-12.67685c0-.38781-.154-.75961-.428-1.03383-.275-.27422-.646-.42846-1.034-.42889z"/>
            <path d="m97.105 17.5526h-12.6769c-.6463-.0008-1.266-.2578-1.723-.7149-.457-.457-.7141-1.0766-.7149-1.723v-12.67684c.0008-.64633.2579-1.26598.7149-1.723004.457-.457027 1.0767-.71411657 1.723-.714856h12.6769c.6463.00073943 1.2659.257829 1.723.714856.457.457024.7141 1.076674.7148 1.723004v12.67684c-.0007.6464-.2578 1.266-.7148 1.723-.4571.4571-1.0767.7141-1.723.7149zm-12.6769-16.577457c-.3878.000424-.7596.154667-1.0338.428887-.2743.27422-.4285.64602-.4289 1.03383v12.67684c.0004.3878.1546.7596.4289 1.0339.2742.2742.646.4284 1.0338.4288h12.6769c.3878-.0004.7596-.1546 1.0338-.4288.2742-.2743.4285-.6461.4289-1.0339v-12.67684c-.0004-.38781-.1547-.75961-.4289-1.03383s-.646-.428463-1.0338-.428887z"/>
            <path d="m156.618 92.4624c1.741 0 3.153-1.4117 3.153-3.1531s-1.412-3.1531-3.153-3.1531-3.153 1.4117-3.153 3.1531 1.412 3.1531 3.153 3.1531z"/>
            <path d="m29.8494 81.2476c1.7414 0 3.153-1.4117 3.153-3.1531s-1.4116-3.1531-3.153-3.1531-3.1531 1.4117-3.1531 3.1531 1.4117 3.1531 3.1531 3.1531z"/>
            <path d="m242.43 108.552c1.742 0 3.153-1.411 3.153-3.153 0-1.741-1.411-3.153-3.153-3.153-1.741 0-3.153 1.412-3.153 3.153 0 1.742 1.412 3.153 3.153 3.153z"/>
        </g>
    </g>
</svg>