<svg width="32" height="32" viewBox="0 0 32 32" fill="none" xmlns="http://www.w3.org/2000/svg">
<path opacity="0.5" d="M8.34665 28.5166H7.99998C6.74265 28.5166 6.11465 28.5166 5.72398 28.126C5.33331 27.7366 5.33331 27.1086 5.33331 25.8513V24.3686C5.33331 23.678 5.33331 23.3326 5.51065 23.0233C5.68798 22.7153 5.95598 22.5593 6.49198 22.2473C10.02 20.1953 15.028 19.0406 18.372 21.034C18.596 21.1686 18.7986 21.3313 18.972 21.5246C19.151 21.7209 19.289 21.951 19.3777 22.2015C19.4664 22.4519 19.504 22.7175 19.4883 22.9828C19.4727 23.248 19.404 23.5073 19.2865 23.7456C19.169 23.9839 19.0049 24.1962 18.804 24.37C18.6437 24.5223 18.4481 24.6323 18.2346 24.69C18.3946 24.6713 18.548 24.65 18.6946 24.6273C19.9093 24.434 20.9293 23.7833 21.8626 23.078L24.2733 21.258C24.7034 20.9451 25.2215 20.7766 25.7533 20.7766C26.2851 20.7766 26.8032 20.9451 27.2333 21.258C27.9973 21.8353 28.232 22.786 27.748 23.562C27.184 24.466 26.3893 25.622 25.6266 26.3286C24.8626 27.0353 23.7253 27.6673 22.7973 28.1153C21.768 28.6126 20.632 28.898 19.476 29.086C17.132 29.4646 14.6893 29.406 12.3693 28.9286C11.0457 28.6565 9.69795 28.5176 8.34665 28.5166Z" fill="#2D8EFF"/>
<path d="M8.78131 3.44836C8.29198 3.9377 8.10931 4.61236 8.04131 5.66703C8.8229 5.65633 9.56945 5.341 10.122 4.78816C10.6746 4.23531 10.9896 3.48862 11 2.70703C9.94664 2.77636 9.27064 2.95903 8.78131 3.44836ZM23.2186 3.44836C22.7293 2.95903 22.0546 2.77636 21 2.70836C21.0107 3.48995 21.326 4.2365 21.8789 4.78909C22.4317 5.34169 23.1784 5.65668 23.96 5.66703C23.8906 4.6137 23.708 3.9377 23.2186 3.44836ZM23.2186 12.5524C22.7293 13.0417 22.0546 13.2244 21 13.2924C21.0107 12.5108 21.326 11.7642 21.8789 11.2116C22.4317 10.659 23.1784 10.344 23.96 10.3337C23.8906 11.387 23.708 12.063 23.2186 12.5524ZM8.78131 12.5524C9.27064 13.0417 9.94531 13.2244 11 13.2924C10.9893 12.5108 10.6739 11.7642 10.1211 11.2116C9.56826 10.659 8.82157 10.344 8.03998 10.3337C8.10931 11.387 8.29198 12.063 8.78131 12.5524Z" fill="#92E8B9"/>
<path fill-rule="evenodd" clip-rule="evenodd" d="M8 7.66602C9.32608 7.66602 10.5979 7.13923 11.5355 6.20155C12.4732 5.26387 13 3.9921 13 2.66602H19C19 3.9921 19.5268 5.26387 20.4645 6.20155C21.4021 7.13923 22.6739 7.66602 24 7.66602V8.33268C22.6739 8.33268 21.4021 8.85947 20.4645 9.79715C19.5268 10.7348 19 12.0066 19 13.3327H13C13 12.0066 12.4732 10.7348 11.5355 9.79715C10.5979 8.85947 9.32608 8.33268 8 8.33268V7.66602ZM16 9.33268C16.3536 9.33268 16.6928 9.19221 16.9428 8.94216C17.1929 8.69211 17.3333 8.35297 17.3333 7.99935C17.3333 7.64573 17.1929 7.30659 16.9428 7.05654C16.6928 6.80649 16.3536 6.66602 16 6.66602C15.6464 6.66602 15.3072 6.80649 15.0572 7.05654C14.8071 7.30659 14.6667 7.64573 14.6667 7.99935C14.6667 8.35297 14.8071 8.69211 15.0572 8.94216C15.3072 9.19221 15.6464 9.33268 16 9.33268Z" fill="#13CE66"/>
</svg>
