<svg fill="none" height="8" viewBox="0 0 13 8" width="13" xmlns="http://www.w3.org/2000/svg"><path d="m0 .541667c0-.299155.33832-.541667.755658-.541667h10.579242c.4173 0 .7556.242512.7556.541667 0 .299154-.3383.541663-.7556.541663h-10.579242c-.417338 0-.755658-.242509-.755658-.541663zm0 2.166663c0-.29915.33832-.54166.755658-.54166h10.579242c.4173 0 .7556.24251.7556.54166 0 .29916-.3383.54167-.7556.54167h-10.579242c-.417338 0-.755658-.24251-.755658-.54167zm0 2.16667c0-.29915.33832-.54167.755658-.54167h10.579242c.4173 0 .7556.24252.7556.54167s-.3383.54167-.7556.54167h-10.579242c-.417338 0-.755658-.24252-.755658-.54167zm0 2.16667c0-.29916.33832-.54167.755658-.54167h10.579242c.4173 0 .7556.24251.7556.54167 0 .29915-.3383.54166-.7556.54166h-10.579242c-.417338 0-.755658-.24251-.755658-.54166z" fill="#0c97f0"/></svg>